<svg
	fill="#000000"
	xmlns="http://www.w3.org/2000/svg"
	viewBox="0 0 50 50"
	width="500px"
	height="500px">
	<path
		d="M12.055 34.326c-1.534 4.215-2.954 6.189-6.217 6.189-.315 0-1.413-.063-1.484-.069-1.053-.053-2.036.614-2.319 1.643-.325 1.17.381 2.375 1.576 2.708C4.476 44.945 5.364 45 6.16 45c6.014 0 8.002-3.369 9.988-8.287L27.881 8.234c.423-1.29-.314-2.67-1.632-3.08-1.295-.401-2.667.266-3.131 1.49l-8.244 21.201h-.129L6.072 6.485C5.486 5.277 4.034 4.688 2.725 5.166c-1.343.49-2.033 1.92-1.592 3.235L12.055 34.326zM43.071 15.445c.978-.789 1.227-2.212.538-3.297-.609-.955-1.75-1.35-2.779-1.049-.09.047-.183.097-.283.151-1.636.91-12.699 8.728-11.45 9.611C30.338 21.736 37.903 18.302 43.071 15.445zM47.048 23.022c-.102-.005-.21-.006-.322-.006-1.878.004-15.379 1.514-14.701 2.918C32.7 27.323 41.013 27.997 46.938 28c1.242-.22 2.141-1.365 2.056-2.674C48.914 24.177 48.097 23.259 47.048 23.022M43.071 36.554c-5.169-2.856-12.733-6.29-13.973-5.415-1.249.881 9.813 8.701 11.45 9.609.1.055.193.105.283.153 1.028.302 2.169-.095 2.779-1.049C44.298 38.766 44.05 37.343 43.071 36.554"/>
</svg>