<svg
	fill="#000000"
	xmlns="http://www.w3.org/2000/svg"
	viewBox="0 0 50 50"
	width="500px"
	height="500px">
	<g
		transform="translate(0,50) scale(0.0097,-0.0097)">
		<path
			d="M2110 5114 c-322 -40 -591 -171 -815 -398 -199 -201 -313 -415 -372 -696 -24 -118 -24 -382 0 -500 59 -281 174 -496 372 -696 201 -203 421 -322 705 -381 117 -24 380 -24 502 0 270 54 494 174 694 372 202 199 322 421 381 705 24 118 24 382 0 500 -39 185 -110 356 -212 510 -63 95 -258 291 -351 352 -161 107 -335 180 -506 213 -81 16 -328 28 -398 19z"/>
		<path
			d="M1745 2109 c-784 -81 -1470 -671 -1674 -1439 -39 -148 -59 -275 -67 -425 -6 -111 -5 -124 15 -163 14 -28 34 -48 61 -62 40 -20 46 -20 2097 -18 l2058 3 85 24 c395 110 663 382 773 781 29 109 29 371 0 480 -56 202 -146 363 -280 499 -133 134 -299 228 -503 283 -115 32 -362 31 -484 -1 -114 -30 -234 -81 -316 -135 l-65 -42 -90 42 c-176 82 -388 143 -588 169 -91 12 -211 15 -530 14 -227 -1 -448 -5 -492 -10z m2473 -325 c364 -75 622 -409 599 -774 -4 -52 -14 -120 -22 -151 -73 -272 -300 -486 -577 -543 -518 -107 -989 363 -882 881 30 147 88 256 193 367 182 191 436 272 689 220z"/>
		<path
			d="M3998 1479 c-58 -30 -78 -79 -78 -189 l0 -90 -90 0 c-71 0 -99 -4 -130 -20 -45 -23 -80 -80 -80 -130 0 -50 35 -107 80 -130 31 -16 59 -20 130 -20 l90 0 0 -90 c0 -112 20 -159 80 -190 50 -25 90 -25 140 0 60 31 80 78 80 190 l0 90 90 0 c71 0 99 4 130 20 45 23 80 80 80 130 0 50 -35 107 -80 130 -31 16 -59 20 -130 20 l-90 0 0 90 c0 112 -20 159 -80 190 -49 25 -94 25 -142 -1z"/>
	</g>
</svg>
