<svg
	fill="#000000"
	xmlns="http://www.w3.org/2000/svg"
	width="500px"
	height="500px"
	viewBox="0 0 50 50">
	<g
		transform="translate(0,50) scale(0.0097,-0.0097)">
	<path
		d="M1125 3740 c-286 -31 -541 -154 -751 -364 -148 -147 -238 -294 -304 -495 -189 -578 80 -1220 625 -1493 310 -156 689 -176 1005 -54 160 62 285 137 395 238 60 55 284 304 292 325 5 13 -381 466 -401 471 -7 1 -74 -70 -151 -159 -171 -199 -234 -248 -385 -301 -115 -41 -319 -34 -435 14 -80 34 -180 104 -235 165 -56 64 -122 190 -141 273 -18 76 -15 222 5 300 52 194 204 358 399 428 64 23 88 26 207 27 107 0 146 -4 190 -19 77 -26 147 -62 203 -105 27 -20 203 -213 390 -430 188 -217 444 -512 568 -655 249 -288 339 -378 444 -447 421 -277 931 -288 1359 -30 444 269 678 816 567 1326 -82 377 -324 689 -667 859 -187 92 -346 129 -559 129 -328 1 -631 -117 -859 -334 -69 -65 -267 -288 -274 -309 -2 -5 79 -104 180 -220 101 -117 189 -220 197 -231 7 -10 19 -19 25 -19 7 0 75 72 151 161 140 163 200 217 290 262 108 53 151 62 295 62 119 -1 143 -4 207 -27 191 -68 331 -216 393 -413 31 -98 31 -252 0 -350 -70 -222 -244 -385 -463 -432 -94 -20 -260 -13 -337 15 -138 49 -214 104 -331 240 -46 53 -143 165 -214 247 -72 83 -178 204 -235 270 -57 66 -212 246 -345 400 -133 154 -275 311 -315 349 -255 240 -630 364 -985 326z"/>
	</g>
</svg>
