<svg
	fill="#000000"
	xmlns="http://www.w3.org/2000/svg"
	viewBox="0 0 50 50"
	width="500px"
	height="500px">
	<g
		transform="translate(0,50) scale(0.05,-0.05)">
		<path
			d="M508 874 c-15 -31 -19 -47 -12 -52 6 -4 23 -30 38 -59 l26 -52 0 -256 0 -255 178 2 177 3 3 308 2 307 -25 50 -25 50 -170 0 -170 0 -22 -46z m352 -14 c11 -20 8 -20 -160 -20 -168 0 -171 0 -160 20 10 19 21 20 160 20 139 0 150 -1 160 -20z m-20 -160 l0 -40 -120 0 -120 0 0 40 0 40 120 0 120 0 0 -40z m0 -120 l0 -40 -120 0 -120 0 0 40 0 40 120 0 120 0 0 -40z m-104 -151 c10 -17 -13 -36 -27 -22 -12 12 -4 33 11 33 5 0 12 -5 16 -11z m0 -80 c10 -17 -13 -36 -27 -22 -12 12 -4 33 11 33 5 0 12 -5 16 -11z"/>
		<path
			d="M105 750 l-25 -50 2 -307 3 -308 215 0 215 0 3 308 2 307 -25 50 -25 50 -170 0 -170 0 -25 -50z m355 -10 c11 -20 8 -20 -160 -20 -168 0 -171 0 -160 20 10 19 21 20 160 20 139 0 150 -1 160 -20z m-40 -160 l0 -40 -120 0 -120 0 0 40 0 40 120 0 120 0 0 -40z m0 -120 l0 -40 -120 0 -120 0 0 40 0 40 120 0 120 0 0 -40z m-104 -151 c10 -17 -13 -36 -27 -22 -12 12 -4 33 11 33 5 0 12 -5 16 -11z m0 -80 c10 -17 -13 -36 -27 -22 -12 12 -4 33 11 33 5 0 12 -5 16 -11z"/>
	</g>
</svg>