<svg
	fill="#000000"
	xmlns="http://www.w3.org/2000/svg"
	viewBox="0 0 50 50"
	width="500px"
	height="500px">
	<g
		transform="translate(0,50) scale(0.0097,-0.0097)">
		<path
			d="M2832 4943 c-11 -10 -435 -614 -943 -1343 -651 -934 -924 -1334 -927 -1357 -3 -24 2 -38 22 -57 l25 -26 651 0 c612 0 650 -1 650 -17 0 -10 -34 -447 -76 -971 -71 -889 -75 -954 -60 -977 18 -28 54 -40 90 -31 33 8 1888 2665 1894 2713 3 24 -2 38 -22 57 l-25 26 -651 0 -650 0 0 21 c0 11 34 442 75 956 41 515 75 944 75 955 0 10 -11 30 -25 43 -29 30 -74 33 -103 8z"/>
	</g>
</svg>