<svg
	fill="#000000"
	xmlns="http://www.w3.org/2000/svg"
	viewBox="0 0 50 50"
	width="500px"
	height="500px">
	<g
		transform="translate(0,50) scale(0.0097,-0.0097)">
		<path
			d="M590 4299 c-32 -13 -77 -56 -98 -94 -16 -27 -17 -138 -20 -1291 l-2 -1261 -237 -283 -236 -284 11 -53 c20 -94 104 -189 190 -213 52 -14 4672 -14 4724 0 86 24 170 119 190 213 l11 53 -236 284 -237 283 -2 1261 c-3 1153 -4 1264 -20 1291 -22 40 -66 81 -101 94 -38 15 -3901 14 -3937 0z m3717 -185 c15 -11 38 -40 51 -64 l22 -44 0 -1022 0 -1021 -23 -44 c-15 -27 -38 -52 -63 -66 l-39 -23 -1690 0 -1691 0 -44 23 c-31 15 -51 35 -67 66 l-23 44 0 1019 c0 1091 -1 1056 48 1112 42 47 -32 45 1784 43 1705 -2 1707 -2 1735 -23z m-1038 -2936 l69 -83 -389 -3 c-214 -1 -564 -1 -778 0 l-389 3 69 83 70 82 639 0 639 0 70 -82z m-316 -187 c32 -13 41 -39 22 -67 l-15 -24 -400 0 c-392 0 -399 0 -413 21 -19 26 -11 58 17 69 29 12 759 12 789 1z"/>
		<path
			d="M2047 3744 c-4 -4 37 -53 91 -108 95 -96 100 -103 105 -152 l6 -51 -69 -68 -68 -68 -57 5 c-56 5 -57 5 -155 103 -98 97 -99 98 -106 71 -23 -93 36 -244 121 -308 73 -55 131 -72 230 -65 l83 5 230 -232 231 -231 -10 -45 c-29 -128 48 -287 168 -349 51 -25 139 -41 192 -34 l43 6 -100 101 c-95 96 -100 103 -105 152 l-6 51 74 73 73 73 49 -7 c44 -7 56 -15 150 -108 l102 -101 7 37 c9 52 -1 127 -25 181 -28 64 -102 139 -164 165 -61 26 -157 37 -208 22 l-36 -10 -232 232 -232 232 12 53 c28 131 -49 284 -175 348 -39 20 -70 27 -131 31 -44 2 -84 0 -88 -4z"/>
	</g>
</svg>
