<svg
	fill="#000000"
	xmlns="http://www.w3.org/2000/svg"
	viewBox="0 0 50 50"
	width="500px"
	height="500px">
	<g
		transform="translate(0,50) scale(0.0097,-0.0097)">
		<path
			d="M1116 4464 c-167 -40 -307 -179 -352 -349 -8 -27 -14 -62 -14 -77 0 -21 -10 -32 -52 -56 -137 -78 -233 -228 -254 -397 -6 -55 -11 -63 -55 -102 -62 -56 -116 -139 -148 -227 l-26 -71 0 -1105 0 -1105 26 -71 c61 -168 179 -284 349 -346 l65 -23 1905 0 1905 0 65 23 c171 61 287 177 349 346 l26 71 3 1060 c2 711 -1 1083 -8 1130 -16 104 -75 222 -150 296 -56 57 -60 64 -60 107 -1 156 -106 329 -252 415 l-65 38 -11 61 c-36 192 -194 353 -381 388 -34 6 -552 10 -1430 9 -1152 -1 -1386 -3 -1435 -15z m3026 -378 c4 -6 8 -14 8 -18 0 -5 -716 -8 -1591 -8 -1447 0 -1591 1 -1585 16 3 9 6 20 6 26 0 16 3152 0 3162 -16z m-1064 -423 c1248 -6 1381 -8 1385 -22 3 -15 -167 -16 -1895 -16 -1577 0 -1897 2 -1893 13 3 8 5 18 5 23 0 11 522 11 2398 2z m-845 -939 c140 -72 958 -552 980 -575 20 -22 27 -39 27 -69 0 -30 -7 -47 -27 -69 -22 -23 -840 -503 -980 -575 -48 -24 -88 -20 -125 13 l-33 29 0 602 0 602 33 29 c37 33 77 37 125 13z"/>
	</g>
</svg>
