<svg
	fill="#000000"
	xmlns="http://www.w3.org/2000/svg"
	viewBox="0 0 50 50"
	width="500px"
	height="500px">
	<g
		transform="translate(0,50) scale(0.05,-0.05)">
		<path
			d="M5 947 c-3 -6 -4 -185 -3 -396 l3 -384 128 -65 129 -64 120 59 121 60 128 -59 129 -60 118 64 117 63 3 389 c1 230 -2 394 -7 399 -6 6 -52 -14 -121 -50 l-112 -60 -130 60 -130 60 -109 -57 c-59 -31 -115 -56 -124 -56 -8 0 -65 25 -125 55 -117 59 -128 62 -135 42z m633 -92 l122 -57 94 51 c52 28 97 51 100 51 3 0 6 -159 6 -354 l0 -355 -101 -54 -101 -54 -130 60 -130 60 -108 -56 c-60 -32 -116 -57 -124 -57 -9 0 -63 24 -121 52 l-105 53 0 352 c0 239 3 353 10 353 6 0 56 -23 111 -51 l100 -52 117 60 c64 33 122 59 127 58 6 -2 65 -29 133 -60z"/>
		<path
			d="M561 771 c-14 -9 -9 -41 6 -41 19 1 35 19 30 34 -7 18 -16 20 -36 7z"/>
		<path
			d="M652 767 c-15 -17 -6 -27 25 -27 18 0 24 5 21 17 -4 22 -31 28 -46 10z"/>
		<path
			d="M751 746 c-14 -17 11 -41 34 -32 21 7 19 23 -4 35 -14 8 -22 7 -30 -3z"/>
		<path
			d="M130 721 c0 -24 15 -35 36 -27 12 4 13 10 4 26 -14 26 -40 26 -40 1z"/>
		<path
			d="M476 714 c-17 -17 -13 -34 8 -34 18 0 35 21 29 36 -7 18 -18 18 -37 -2z"/>
		<path
			d="M832 678 c2 -12 11 -24 21 -26 14 -3 18 1 15 20 -2 12 -11 24 -21 26 -14 3 -18 -1 -15 -20z"/>
		<path
			d="M204 655 c-8 -21 10 -39 30 -32 22 9 20 24 -4 37 -16 9 -22 8 -26 -5z"/>
		<path
			d="M390 655 c-9 -11 -10 -19 -3 -26 14 -14 43 0 43 22 0 23 -23 25 -40 4z"/>
		<path
			d="M292 613 c2 -10 12 -18 23 -18 11 0 21 8 23 18 3 13 -3 17 -23 17 -20 0 -26 -4 -23 -17z"/>
		<path
			d="M874 595 c-7 -18 3 -35 22 -35 8 0 14 10 14 25 0 27 -27 35 -36 10z"/>
		<path
			d="M880 485 c0 -20 4 -26 18 -23 9 2 17 12 17 23 0 11 -8 21 -17 23 -14 3 -18 -3 -18 -23z"/>
		<path
			d="M872 408 c-7 -7 -12 -20 -12 -31 0 -24 33 -19 38 7 5 24 -11 39 -26 24z"/>
		<path
			d="M164 349 c-3 -6 6 -24 22 -40 l28 -29 -29 -30 c-22 -23 -26 -33 -17 -42 9 -9 19 -5 42 17 l30 29 30 -29 c23 -22 33 -26 42 -17 9 9 5 19 -17 42 l-29 30 29 30 c22 23 26 33 17 42 -9 9 -19 5 -42 -17 l-30 -29 -28 27 c-31 30 -38 32 -48 16z"/>
		<path
			d="M440 321 c0 -16 6 -21 26 -21 33 0 30 33 -4 38 -17 3 -22 -2 -22 -17z"/>
		<path
			d="M810 310 c-9 -16 -8 -22 4 -26 21 -8 36 3 36 27 0 25 -26 25 -40 -1z"/>
		<path
			d="M350 305 c-9 -11 -10 -19 -3 -26 14 -14 43 0 43 22 0 23 -23 25 -40 4z"/>
		<path
			d="M530 281 c0 -20 25 -35 41 -25 14 9 10 31 -7 38 -26 10 -34 7 -34 -13z"/>
		<path
			d="M727 263 c-16 -15 -6 -34 15 -31 29 4 38 38 10 38 -10 0 -22 -3 -25 -7z"/>
		<path
			d="M622 243 c2 -10 12 -18 23 -18 11 0 21 8 23 18 3 13 -3 17 -23 17 -20 0 -26 -4 -23 -17z"/>
	</g>
</svg>
