<svg
	fill="#000000"
	xmlns="http://www.w3.org/2000/svg"
	viewBox="0 0 50 50"
	width="500px"
	height="500px">
	<g
		transform="translate(0,50) scale(0.01,-0.01)">
		<path
			d="M2505 3994 c-282 -43 -496 -144 -690 -326 -71 -66 -166 -186 -211 -267 l-28 -50 -96 6 c-191 11 -356 -52 -491 -187 -119 -118 -178 -257 -184 -428 l-3 -83 -86 -51 c-189 -113 -313 -279 -374 -503 -23 -84 -23 -288 1 -375 74 -277 301 -500 592 -582 l80 -23 1469 -3 c1616 -3 1556 -5 1727 58 223 81 399 238 499 445 59 121 79 199 87 330 28 495 -377 925 -873 925 -70 0 -94 14 -94 58 0 15 -7 59 -15 97 -99 470 -452 830 -915 936 -83 19 -327 33 -395 23z m623 -981 c50 -38 67 -70 67 -132 l0 -58 -335 -503 c-184 -276 -347 -513 -363 -526 -33 -28 -83 -39 -135 -29 -32 5 -75 44 -314 283 -299 299 -300 301 -283 389 9 49 69 109 118 118 85 16 98 8 302 -195 l189 -189 264 397 c146 218 274 408 286 421 11 13 35 30 51 37 40 19 119 12 153 -13z"/>
	</g>
</svg>
