<svg
	fill="#000000"
	xmlns="http://www.w3.org/2000/svg"
	viewBox="0 0 50 50"
	width="500px"
	height="500px">
	<g
		transform="translate(0,50) scale(0.0097,-0.0097)">
		<path
			d="M766 4419 c-235 -39 -421 -208 -480 -436 -14 -54 -16 -198 -16 -1210 0 -1264 -3 -1199 62 -1333 48 -99 162 -209 269 -259 46 -22 111 -44 143 -50 39 -7 284 -11 703 -11 l643 0 -80 -160 -80 -160 -238 0 c-227 0 -239 -1 -276 -23 -109 -61 -106 -221 5 -277 37 -20 64 -20 1139 -20 1075 0 1102 0 1139 20 113 57 113 223 0 280 -35 18 -59 20 -274 20 l-235 0 -80 160 -80 160 647 0 c713 0 723 1 849 61 94 45 218 168 262 259 65 134 62 70 62 1330 0 1271 3 1209 -67 1344 -49 93 -156 202 -244 245 -145 71 20 65 -1949 67 -976 1 -1797 -2 -1824 -7z m3571 -324 c68 -20 126 -65 160 -122 l28 -48 3 -1138 2 -1138 -21 -50 c-13 -29 -40 -66 -66 -89 -86 -76 65 -70 -1883 -70 -1940 0 -1795 -5 -1880 67 -24 21 -53 60 -66 87 l-24 51 0 1131 0 1132 28 52 c33 64 83 107 154 131 51 17 133 18 1784 19 1505 0 1737 -2 1781 -15z"/>
		<path
			d="M1925 3952 c-16 -11 -276 -267 -577 -568 -367 -368 -549 -558 -553 -576 -4 -16 -4 -40 -1 -55 5 -19 192 -213 574 -595 545 -546 569 -568 604 -568 20 0 49 5 63 12 47 21 69 92 44 141 -6 12 -239 250 -517 529 l-507 508 512 512 c343 344 514 522 518 541 23 93 -81 170 -160 119z"/>
		<path
			d="M3083 3950 c-28 -11 -63 -66 -63 -98 0 -13 5 -33 11 -45 6 -12 239 -250 518 -529 l506 -508 -506 -507 c-279 -280 -512 -518 -518 -530 -25 -49 -3 -120 44 -141 14 -7 43 -12 63 -12 35 0 59 22 604 568 382 382 569 576 574 595 3 15 3 39 -1 55 -7 30 -1089 1122 -1137 1148 -30 16 -62 17 -95 4z"/>
	</g>
</svg>
