<svg
	fill="#000000"
	xmlns="http://www.w3.org/2000/svg"
	viewBox="0 0 50 50"
	width="500px"
	height="500px">
	<g
		transform="translate(0,50) scale(0.0097,-0.0097)">
		<path
			d="M733 3986 l-28 -24 -3 -191 -3 -191 1914 0 c2110 0 1980 4 2044 -62 66 -68 63 -28 63 -888 l0 -780 169 0 c165 0 171 1 198 24 l28 24 0 1032 0 1032 -28 24 -28 24 -2149 0 -2149 0 -28 -24z"/>
		<path
			d="M33 3246 l-28 -24 0 -1032 0 -1032 28 -24 28 -24 2147 0 c2348 0 2175 -4 2201 57 8 21 11 293 9 1041 l-3 1014 -28 24 -28 24 -2149 0 -2149 0 -28 -24z m2074 -401 c95 -28 196 -99 273 -192 l35 -42 55 24 c45 20 72 24 145 24 53 0 106 -6 130 -14 22 -8 47 -15 56 -15 9 0 48 -30 87 -67 71 -69 132 -167 132 -215 0 -19 8 -25 48 -35 65 -15 176 -77 192 -108 7 -14 17 -25 22 -25 5 0 26 -35 46 -77 35 -75 37 -82 37 -183 0 -92 -4 -112 -27 -160 -30 -64 -97 -146 -147 -178 -19 -13 -67 -34 -107 -48 l-73 -24 -796 0 c-774 0 -797 1 -856 20 -118 40 -199 111 -250 217 -30 64 -31 67 -27 191 3 126 3 127 39 182 20 31 58 75 85 99 50 44 155 101 187 101 13 0 17 9 18 38 1 60 23 170 37 184 6 6 12 16 12 21 0 18 101 141 145 178 134 110 338 153 502 104z m-1382 -414 c17 -9 40 -37 53 -61 22 -42 23 -55 20 -190 -4 -162 -14 -196 -71 -230 -42 -26 -122 -27 -161 -1 -60 40 -66 60 -66 241 0 144 3 169 19 193 47 73 128 92 206 48z m3130 -1 c58 -36 65 -61 65 -241 0 -151 -2 -165 -22 -195 -31 -45 -68 -64 -125 -64 -63 0 -109 28 -133 83 -16 35 -20 65 -20 177 0 180 19 224 107 256 43 15 85 10 128 -16z"/>
			<path
				d="M1810 2699 c-25 -12 -55 -26 -67 -31 -46 -22 -119 -105 -152 -172 -31 -64 -34 -79 -39 -188 l-5 -118 -53 0 c-157 0 -284 -121 -284 -270 0 -98 54 -182 153 -238 l38 -22 817 0 c775 0 819 1 858 19 85 39 141 126 150 234 5 51 3 76 -5 81 -6 4 -11 14 -11 23 0 23 -60 98 -95 120 -46 28 -104 43 -167 43 l-58 0 0 69 c0 114 -55 198 -166 251 -54 27 -147 27 -194 1 -19 -11 -46 -25 -60 -32 -14 -7 -44 -30 -67 -52 l-42 -40 -16 39 c-9 22 -21 50 -27 64 -20 53 -72 122 -120 160 -97 77 -288 106 -388 59z"/>
	</g>
</svg>
